<?xml version="1.0" standalone="no"?>
<!DOCTYPE svg PUBLIC "-//W3C//DTD SVG 20010904//EN"
 "http://www.w3.org/TR/2001/REC-SVG-20010904/DTD/svg10.dtd">
<svg version="1.0" xmlns="http://www.w3.org/2000/svg"
 width="800.000000pt" height="800.000000pt" viewBox="0 0 800.000000 800.000000"
 preserveAspectRatio="xMidYMid meet">
<g transform="translate(0.000000,800.000000) scale(0.100000,-0.100000)"
fill="#000000" stroke="none">
<path d="M5035 7144 c-257 -54 -514 -251 -611 -469 -13 -30 -21 -55 -18 -55 2
0 60 30 127 67 289 158 668 313 764 313 13 0 23 6 23 14 0 15 -34 62 -65 88
-41 36 -150 56 -220 42z"/>
<path d="M2693 6746 c-89 -29 -155 -95 -165 -165 -3 -24 -2 -24 82 -22 162 4
559 -58 828 -128 39 -10 72 -16 72 -12 0 4 -23 33 -51 64 -93 105 -244 195
-406 243 -108 32 -293 42 -360 20z"/>
<path d="M5390 6316 l-55 -11 3 -91 c5 -115 -11 -154 -61 -154 l-32 0 -1 68
c-1 68 -26 176 -43 187 -8 4 -108 -29 -119 -40 -2 -2 4 -24 12 -49 22 -64 21
-158 -1 -184 -33 -38 -52 -32 -71 23 -16 48 -53 117 -85 159 -16 22 -24 19
-91 -37 l-29 -24 29 -44 c43 -63 54 -94 54 -146 0 -34 -6 -53 -22 -70 l-21
-23 -46 50 c-25 27 -73 66 -106 85 l-59 35 -28 -52 c-15 -29 -27 -58 -28 -64
0 -6 15 -18 34 -26 49 -24 101 -73 120 -113 16 -33 16 -36 -5 -77 -175 -344
-70 -798 232 -1004 160 -108 322 -137 499 -88 197 55 366 238 430 464 30 108
36 254 16 363 -34 180 -98 301 -222 425 l-84 82 35 46 c39 51 75 156 75 220 0
41 -2 44 -27 44 -16 0 -45 3 -65 6 -38 7 -38 6 -38 -28 0 -48 -26 -130 -51
-162 -22 -27 -77 -61 -86 -52 -3 2 0 21 7 42 20 60 14 256 -8 253 -4 -1 -32
-6 -62 -13z m15 -321 c99 -26 173 -72 265 -165 68 -67 94 -103 128 -170 64
-132 77 -191 77 -360 -1 -132 -3 -152 -29 -225 -90 -261 -301 -425 -545 -425
-200 0 -410 143 -514 350 -67 134 -82 199 -82 355 0 109 4 142 23 205 103 328
386 510 677 435z"/>
<path d="M5312 5690 c-138 -29 -263 -166 -302 -329 -19 -80 -15 -214 9 -291
43 -140 124 -238 241 -294 55 -26 77 -31 140 -31 66 0 85 5 142 33 182 90 277
329 223 560 -56 237 -256 392 -453 352z m226 -324 c72 -71 75 -215 7 -283
-112 -112 -262 90 -182 247 25 51 77 84 117 75 14 -4 40 -21 58 -39z"/>
<path d="M3350 6033 c-30 -8 -56 -16 -57 -17 -2 -2 2 -28 8 -59 21 -103 -8
-187 -65 -187 -21 0 -24 5 -29 68 -6 66 -28 153 -46 181 -8 12 -18 10 -65 -9
-61 -24 -61 -25 -45 -67 37 -97 30 -190 -16 -211 -36 -16 -45 -15 -45 7 0 25
-64 149 -95 184 l-25 28 -49 -42 -49 -42 38 -56 c63 -93 72 -159 28 -207 l-19
-22 -47 47 c-44 44 -147 111 -169 111 -6 0 -22 -26 -35 -57 l-25 -58 51 -28
c62 -34 101 -70 116 -108 11 -25 8 -38 -18 -101 -51 -123 -65 -204 -59 -347 5
-140 25 -217 83 -335 85 -168 229 -298 397 -356 87 -30 231 -37 321 -16 187
44 330 163 421 351 54 111 75 205 75 330 0 256 -113 493 -302 631 l-48 36 30
37 c41 51 70 131 77 213 l6 68 -65 0 -65 0 -7 -59 c-8 -74 -41 -139 -85 -168
-43 -29 -55 -29 -46 0 21 70 11 279 -13 276 -4 0 -32 -8 -62 -16z m15 -318
c119 -25 208 -76 305 -174 202 -204 267 -490 175 -763 -33 -98 -79 -172 -155
-248 -110 -109 -232 -160 -385 -160 -160 0 -293 58 -415 180 -88 88 -141 174
-176 285 -87 274 -30 540 156 725 141 141 310 194 495 155z"/>
<path d="M3231 5385 c-74 -35 -123 -76 -164 -138 -82 -124 -106 -276 -69 -425
39 -151 124 -262 249 -324 60 -29 77 -33 148 -33 99 1 176 32 248 103 96 94
137 199 137 353 0 205 -97 377 -258 456 -47 23 -72 28 -147 31 -79 2 -96 0
-144 -23z m286 -280 c75 -50 99 -206 43 -284 -50 -72 -142 -62 -193 20 -94
153 18 350 150 264z"/>
<path d="M4643 4255 c-382 -69 -655 -355 -604 -632 68 -368 599 -530 1036
-317 194 95 326 252 357 425 35 198 -98 396 -323 485 -130 51 -315 66 -466 39z"/>
<path d="M6655 3635 c-142 -86 -234 -192 -455 -525 -79 -118 -170 -251 -203
-295 -319 -424 -740 -683 -1234 -761 -129 -20 -426 -15 -533 10 -248 57 -419
137 -785 369 -437 277 -589 335 -846 325 -139 -6 -186 -23 -73 -26 151 -4 323
-56 494 -149 101 -55 297 -187 506 -340 189 -138 364 -255 472 -316 409 -229
766 -272 1167 -142 137 45 244 114 378 244 176 170 308 359 597 851 255 436
410 654 529 744 45 34 58 46 48 46 -2 0 -30 -16 -62 -35z"/>
</g>
</svg>
