<?xml version="1.0" standalone="no"?>
<!DOCTYPE svg PUBLIC "-//W3C//DTD SVG 20010904//EN"
 "http://www.w3.org/TR/2001/REC-SVG-20010904/DTD/svg10.dtd">
<svg version="1.0" xmlns="http://www.w3.org/2000/svg"
 width="800.000000pt" height="645.000000pt" viewBox="0 0 800.000000 645.000000"
 preserveAspectRatio="xMidYMid meet">
<g transform="translate(0.000000,645.000000) scale(0.100000,-0.100000)"
fill="#000000" stroke="none">
<path d="M3530 5500 c-25 -5 -54 -14 -65 -19 -114 -52 -138 -67 -190 -120 -87
-89 -88 -93 -8 -70 149 44 380 34 510 -22 96 -41 184 -136 236 -254 40 -92 52
-80 51 50 -1 163 -39 274 -121 354 -14 14 -23 19 -19 11 5 -8 -2 -3 -15 12
-40 45 -92 60 -219 64 -63 2 -135 -1 -160 -6z"/>
<path d="M1848 5462 c9 -6 -4 -7 -39 -4 -29 3 -50 1 -46 -4 3 -5 -7 -10 -22
-11 -27 -2 -108 -40 -139 -65 -13 -11 -14 -11 -8 0 7 11 4 11 -13 0 -25 -16
-28 -30 -3 -22 14 5 14 4 2 -4 -8 -6 -18 -8 -22 -6 -15 10 -115 -136 -124
-179 -2 -11 -7 -24 -13 -31 -12 -14 -50 -171 -53 -216 -2 -37 7 -60 22 -60 5
0 30 31 56 70 56 85 154 177 228 213 90 44 158 57 302 57 185 0 336 -31 466
-96 26 -13 50 -24 53 -24 9 0 -26 62 -66 116 -42 57 -108 117 -154 141 -16 9
-32 19 -35 22 -5 7 -66 34 -85 38 -10 2 -43 13 -118 40 -25 9 -36 10 -32 2 5
-8 2 -8 -11 -1 -11 5 -39 12 -64 16 -25 4 -56 9 -70 12 -17 4 -21 3 -12 -4z"/>
<path d="M3640 4381 c0 -20 -71 -44 -113 -38 -32 4 -43 1 -70 -24 -33 -31 -69
-45 -85 -35 -26 16 -29 -76 -6 -155 21 -70 74 -121 173 -166 65 -30 78 -33
103 -22 39 16 85 71 99 117 20 68 8 180 -26 247 -29 55 -75 102 -75 76z"/>
<path d="M2174 4168 c3 -10 0 -18 -6 -18 -6 0 -8 -3 -5 -7 12 -11 -70 -80
-109 -93 -21 -7 -58 -10 -86 -7 -44 6 -55 3 -84 -19 -21 -17 -46 -26 -68 -26
-33 0 -36 -3 -42 -35 -11 -56 2 -173 26 -236 30 -80 88 -149 151 -181 122 -61
238 -12 310 131 33 66 34 71 34 188 0 101 -4 129 -23 177 -21 51 -111 167 -98
126z"/>
<path d="M6510 3365 c-110 -16 -214 -48 -320 -98 -79 -38 -231 -130 -261 -159
-8 -7 -31 -26 -52 -41 -116 -87 -335 -325 -435 -475 -176 -260 -291 -509 -357
-767 -21 -84 -29 -122 -54 -280 -6 -33 -13 -139 -16 -235 -7 -204 -9 -220 -33
-220 -25 0 -60 94 -83 219 -32 178 -22 407 27 580 9 30 13 62 11 73 -3 10 -2
16 2 13 4 -2 18 33 30 78 12 45 29 94 37 109 8 14 14 32 14 40 -1 21 -39 -34
-46 -66 -3 -16 -14 -43 -23 -60 -10 -17 -21 -42 -25 -56 -78 -281 -111 -497
-103 -690 7 -151 33 -313 64 -390 3 -8 5 -21 4 -28 -1 -7 12 -38 28 -67 17
-30 31 -60 31 -65 0 -13 74 -124 109 -164 141 -159 316 -259 521 -297 127 -24
428 -9 465 23 5 4 20 8 33 8 34 0 290 110 302 130 3 5 12 10 20 12 8 2 20 8
26 13 14 11 148 105 173 120 9 6 18 12 21 15 3 3 25 21 50 40 24 19 56 46 70
60 14 14 41 38 60 53 27 23 31 31 19 38 -10 8 -9 9 7 4 15 -4 26 1 37 17 9 13
41 50 71 83 34 36 51 62 45 66 -8 5 -8 8 0 12 7 4 8 5 1 3 -7 -1 -11 -5 -10
-9 0 -4 -20 -25 -45 -47 -26 -22 -44 -40 -41 -40 17 0 -188 -169 -290 -238
-56 -38 -184 -108 -259 -142 -198 -89 -317 -115 -530 -114 -159 0 -225 14
-344 71 -123 58 -220 174 -186 220 13 17 15 17 51 0 33 -16 39 -17 52 -3 9 9
12 19 8 23 -4 4 -12 1 -17 -7 -9 -13 -10 -13 -6 0 2 8 -12 35 -32 60 -21 25
-51 68 -68 95 -28 46 -39 68 -72 149 -13 31 -42 152 -68 276 -19 96 -28 297
-14 352 5 24 20 84 32 133 12 50 25 92 29 95 5 3 11 22 15 43 4 20 11 40 16
43 5 3 9 14 9 25 0 10 4 19 9 19 5 0 8 6 8 13 -1 6 31 76 70 155 74 146 163
288 250 399 26 34 59 76 73 95 86 114 385 379 445 394 14 3 25 9 25 13 0 4 16
15 35 24 19 9 35 22 35 27 0 6 5 8 11 4 6 -3 14 -2 18 3 6 10 174 82 201 87 8
1 40 10 70 20 74 23 257 32 345 17 185 -32 375 -195 444 -381 7 -19 17 -44 22
-55 17 -37 48 -175 60 -262 11 -85 7 -334 -7 -438 -4 -27 -3 -47 1 -42 8 7 12
29 14 70 1 10 5 16 10 13 17 -11 51 228 51 364 0 336 -160 632 -410 760 -95
49 -236 81 -345 79 -27 -1 -88 -7 -135 -14z"/>
<path d="M6586 3249 c-254 -39 -549 -194 -741 -388 l-59 -61 159 4 c88 2 185
9 215 15 195 42 382 94 455 126 17 7 80 30 140 50 61 21 150 53 200 72 76 29
93 33 110 23 16 -10 15 -7 -5 16 -38 43 -50 52 -120 88 -105 53 -235 74 -354
55z"/>
<path d="M2196 3063 c21 -82 105 -302 138 -355 46 -77 40 -75 90 -31 25 22 60
47 77 56 33 15 31 20 -14 31 -70 17 -196 69 -190 78 3 7 1 8 -5 4 -7 -4 -12
-1 -12 9 0 9 5 13 10 10 6 -3 10 0 10 9 0 30 53 95 87 107 18 6 33 14 33 18 0
8 -202 91 -221 91 -5 0 -6 -12 -3 -27z"/>
<path d="M3550 2955 c-25 -13 -72 -34 -105 -47 -33 -12 -53 -24 -44 -26 10 -2
20 -17 23 -38 5 -22 11 -32 19 -29 7 4 -9 -13 -34 -37 -29 -27 -75 -54 -120
-73 -73 -30 -77 -30 -254 -30 -164 1 -194 4 -337 34 -179 37 -186 36 -267 -39
-52 -49 -51 -53 64 -166 61 -62 100 -91 157 -118 41 -20 84 -36 94 -35 11 0 6
5 -12 10 -19 5 -34 17 -37 30 -6 24 1 49 14 49 5 0 9 5 9 11 0 24 57 82 103
106 45 22 60 24 142 21 78 -3 100 -7 150 -33 51 -26 60 -35 66 -65 4 -19 3
-40 -2 -47 -23 -26 15 -23 60 6 93 60 187 179 282 358 52 97 90 183 81 183 -4
-1 -27 -12 -52 -25z"/>
<path d="M4123 2924 c-3 -9 3 -21 16 -30 12 -9 29 -24 39 -33 9 -10 35 -31 57
-47 22 -16 42 -31 45 -34 3 -3 30 -21 60 -40 30 -19 57 -37 60 -40 12 -13 112
-61 117 -57 8 9 -8 28 -20 24 -21 -7 -36 16 -20 31 20 20 16 30 -11 25 -18 -4
-32 2 -49 21 -13 14 -31 26 -38 26 -8 0 -32 16 -54 35 -22 19 -41 31 -43 25
-2 -5 -8 -10 -14 -10 -6 0 -7 7 -4 16 5 12 1 14 -15 9 -16 -5 -19 -4 -14 5 5
9 4 11 -3 6 -14 -8 -104 63 -96 76 3 4 3 8 -1 8 -3 0 -8 -7 -12 -16z"/>
<path d="M3934 2769 c3 -36 14 -90 25 -120 22 -58 102 -176 126 -185 7 -3 12
-11 9 -18 -3 -9 8 -15 33 -19 33 -6 57 -25 154 -122 101 -102 145 -139 123
-103 -4 7 -3 8 4 4 6 -4 8 -14 5 -23 -5 -13 -2 -15 12 -9 11 4 16 4 13 0 -4
-3 -1 -13 7 -21 8 -8 18 -32 21 -54 10 -61 79 -96 126 -65 23 15 28 14 76 -9
29 -14 54 -25 57 -25 2 0 31 -13 64 -29 l60 -29 44 136 c25 75 39 128 31 117
-8 -10 -14 -15 -14 -9 0 5 -5 2 -10 -6 -8 -12 -10 -10 -8 10 2 16 -2 25 -12
25 -13 0 -65 29 -80 45 -11 12 -51 30 -65 30 -8 0 -15 4 -15 10 0 5 -19 18
-42 29 -24 11 -50 24 -58 29 -8 5 -24 13 -34 19 -11 5 -25 25 -31 44 -7 19
-17 34 -24 34 -6 0 -16 6 -20 14 -7 10 -12 2 -19 -30 -5 -24 -10 -37 -11 -29
-1 15 -44 40 -68 40 -7 0 -13 5 -13 10 0 6 -18 17 -40 26 -22 9 -40 22 -40 30
0 8 -7 14 -15 14 -14 0 -53 18 -65 30 -13 13 -87 43 -100 41 -8 -2 -12 0 -8 4
4 4 -1 20 -12 36 -11 15 -23 41 -26 58 -5 24 -12 31 -30 31 -13 0 -32 10 -43
22 -16 16 -21 18 -25 7 -13 -40 -16 -40 -11 1 l5 45 -15 -30 c-9 -16 -13 -22
-11 -13 3 10 1 20 -5 24 -6 3 -15 16 -20 28 -7 15 -8 2 -5 -45z"/>
<path d="M6217 2406 c21 -23 50 -54 65 -71 35 -37 58 -111 58 -183 0 -62 -25
-129 -51 -137 -9 -3 -23 -20 -30 -38 -7 -18 -28 -45 -46 -61 -24 -20 -31 -32
-24 -39 11 -11 39 14 76 65 l16 23 -7 -27 c-3 -16 -4 -28 -1 -28 9 0 46 70 55
103 6 25 14 33 35 35 15 2 27 -2 27 -8 0 -6 4 -9 9 -6 9 6 137 -30 156 -44 6
-4 37 -15 70 -25 33 -9 86 -26 118 -36 32 -10 75 -21 95 -25 20 -4 39 -11 43
-15 3 -5 45 -13 95 -18 49 -6 103 -14 121 -20 26 -8 33 -6 36 7 4 15 5 15 6 0
0 -10 4 -18 7 -18 4 0 13 8 20 18 11 15 12 12 4 -18 -9 -32 -8 -33 6 -15 17
23 65 170 89 270 21 92 32 231 17 221 -6 -3 -113 1 -239 10 -125 9 -237 16
-248 15 -11 0 -44 6 -73 15 -31 9 -67 12 -87 8 -21 -4 -35 -2 -35 3 0 6 -35
15 -77 20 -43 6 -125 21 -183 33 -58 12 -117 23 -132 24 l-27 3 36 -41z"/>
<path d="M5293 2058 c-15 -18 -53 -125 -53 -147 0 -10 12 -26 26 -36 17 -11
23 -12 18 -4 -4 8 5 4 20 -9 16 -12 32 -22 36 -22 4 0 25 -8 46 -17 22 -9 48
-18 58 -20 11 -2 25 -8 31 -13 6 -5 20 -11 31 -13 10 -2 26 -7 34 -10 8 -4 60
-15 115 -26 125 -25 292 -23 375 5 l55 18 -39 7 c-23 4 -61 1 -90 -7 -28 -7
-77 -13 -109 -13 -50 1 -62 5 -87 31 -17 16 -30 35 -30 42 0 14 -39 53 -46 47
-18 -14 -270 116 -370 191 -7 5 -16 3 -21 -4z"/>
<path d="M5211 1827 l-12 -42 118 -121 c65 -67 127 -126 138 -131 11 -6 38
-11 60 -12 22 0 54 -4 71 -10 30 -9 198 -124 260 -179 17 -15 54 -45 82 -67
28 -22 57 -51 64 -65 7 -13 20 -32 28 -40 42 -46 90 -110 183 -247 23 -35 47
-63 52 -63 6 0 18 -17 28 -37 15 -29 16 -38 5 -45 -9 -7 -8 -8 6 -4 25 8 146
89 141 94 -2 2 -24 -10 -49 -27 -56 -39 -73 -41 -20 -3 21 16 46 37 54 47 14
17 13 18 -2 12 -12 -4 -15 -2 -12 7 3 7 -1 20 -8 27 -8 8 -20 30 -28 49 -8 19
-20 41 -28 49 -7 7 -16 26 -19 42 -3 16 -9 29 -14 29 -5 0 -9 6 -9 14 0 7 -7
20 -16 27 -9 7 -20 22 -25 34 -30 70 -195 304 -322 456 -19 22 -40 29 -141 48
-157 29 -315 80 -453 147 -62 30 -115 54 -117 54 -2 0 -9 -19 -15 -43z"/>
</g>
</svg>
