<?xml version="1.0" standalone="no"?>
<!DOCTYPE svg PUBLIC "-//W3C//DTD SVG 20010904//EN"
 "http://www.w3.org/TR/2001/REC-SVG-20010904/DTD/svg10.dtd">
<svg version="1.0" xmlns="http://www.w3.org/2000/svg"
 width="126.000000pt" height="120.000000pt" viewBox="0 0 126.000000 120.000000"
 preserveAspectRatio="xMidYMid meet">

<g transform="translate(0.000000,120.000000) scale(0.100000,-0.100000)"
fill="#000000" stroke="none">
<path d="M520 1096 c-170 -38 -329 -197 -384 -386 -9 -30 -19 -100 -22 -155
-7 -111 4 -159 34 -153 9 2 27 -9 40 -24 13 -15 29 -27 35 -25 6 1 13 -8 15
-21 5 -31 28 -38 53 -16 20 18 21 18 36 -1 14 -18 15 -11 9 80 -3 55 -6 153
-6 218 0 73 -4 116 -10 112 -5 -3 -19 4 -31 16 l-22 22 -18 -21 c-11 -15 -17
-41 -18 -83 0 -34 -3 -64 -6 -67 -3 -3 -5 7 -5 22 0 25 -2 27 -37 22 l-38 -5
38 11 c33 10 37 15 37 45 0 37 -6 41 -27 16 -13 -16 -14 -15 -8 12 20 102 130
243 231 297 186 100 406 67 555 -84 55 -55 111 -149 125 -213 7 -29 6 -29 -12
-14 -10 9 -24 15 -30 12 -6 -2 -14 5 -17 17 -6 25 -42 27 -56 3 -7 -14 -12
-15 -24 -4 -14 11 -15 1 -11 -96 3 -59 2 -158 -3 -220 -7 -100 -7 -110 7 -98
13 11 18 11 34 -1 29 -21 45 -17 52 11 3 14 12 25 19 25 8 0 23 13 34 29 14
20 27 28 40 24 38 -10 50 79 30 221 -26 191 -122 338 -280 430 -87 50 -241 68
-359 42z m-126 -84 c-105 -68 -168 -150 -215 -277 -19 -50 -19 -50 -13 -10 17
120 180 308 278 324 5 0 -17 -16 -50 -37z m522 4 c37 -20 142 -145 167 -199
24 -52 51 -146 44 -153 -2 -2 -12 24 -21 58 -33 118 -109 221 -213 288 -45 29
-28 34 23 6z m144 -340 c0 -17 7 -26 25 -30 14 -4 30 -4 35 -1 6 4 10 1 10 -6
0 -8 -11 -10 -35 -6 -26 4 -35 2 -35 -9 0 -8 -4 -14 -10 -14 -5 0 -10 20 -10
45 0 25 5 45 10 45 6 0 10 -11 10 -24z m-903 -18 c-3 -8 -6 -5 -6 6 -1 11 2
17 5 13 3 -3 4 -12 1 -19z"/>
<path d="M482 614 c-12 -8 -22 -19 -22 -25 0 -5 9 0 19 10 20 20 51 19 81 -3
8 -6 6 -1 -4 12 -22 26 -43 28 -74 6z"/>
<path d="M732 623 c-7 -2 -17 -14 -24 -26 -11 -21 -10 -21 9 -4 11 9 30 17 43
17 13 0 32 -8 43 -17 19 -17 20 -17 9 3 -16 30 -47 41 -80 27z"/>
<path d="M513 586 c8 -20 -4 -28 -20 -15 -10 9 -13 5 -13 -19 0 -19 7 -35 18
-41 14 -9 15 -10 1 -11 -14 0 -30 22 -42 60 -3 9 -6 6 -6 -8 -1 -25 39 -72 61
-72 8 0 23 6 34 14 33 24 15 106 -23 106 -9 0 -13 -6 -10 -14z m37 -80 c0 -2
-7 -7 -16 -10 -8 -3 -12 -2 -9 4 6 10 25 14 25 6z"/>
<path d="M752 582 c2 -11 -3 -17 -14 -16 -19 2 -25 -33 -10 -52 4 -5 -1 -1
-10 9 -10 11 -18 14 -18 8 0 -32 59 -62 85 -43 16 11 41 47 28 39 -8 -5 -13 3
-15 24 -2 22 -10 34 -26 40 -19 7 -22 5 -20 -9z"/>
<path d="M572 555 c0 -16 2 -22 5 -12 2 9 2 23 0 30 -3 6 -5 -1 -5 -18z"/>
<path d="M390 420 c0 -5 5 -10 10 -10 6 0 10 5 10 10 0 6 -4 10 -10 10 -5 0
-10 -4 -10 -10z"/>
<path d="M870 414 c0 -8 5 -12 10 -9 6 3 10 10 10 16 0 5 -4 9 -10 9 -5 0 -10
-7 -10 -16z"/>
<path d="M770 174 c-83 -30 -178 -32 -257 -4 -60 21 -79 19 -47 -5 74 -55 363
-39 382 23 5 16 0 15 -78 -14z"/>
</g>
</svg>
