<?xml version="1.0" standalone="no"?>
<!DOCTYPE svg PUBLIC "-//W3C//DTD SVG 20010904//EN"
 "http://www.w3.org/TR/2001/REC-SVG-20010904/DTD/svg10.dtd">
<svg version="1.0" xmlns="http://www.w3.org/2000/svg"
 width="480.000000pt" height="360.000000pt" viewBox="0 0 480.000000 360.000000"
 preserveAspectRatio="xMidYMid meet">

<g transform="translate(0.000000,360.000000) scale(0.100000,-0.100000)"
fill="#000000" stroke="none">
<path d="M2130 3422 c0 -4 18 -26 40 -47 22 -21 40 -42 40 -45 0 -4 -60 -8
-132 -9 -157 -2 -175 -4 -293 -30 -97 -21 -283 -94 -275 -107 6 -11 118 -13
148 -3 13 5 22 5 22 -2 0 -6 6 -6 18 -1 9 5 85 12 167 16 l150 7 -60 -40 c-90
-59 -145 -110 -145 -133 0 -18 5 -20 39 -15 21 2 77 23 123 45 l86 40 -31 -45
c-27 -40 -30 -55 -35 -139 -4 -71 -2 -94 8 -94 7 0 35 22 64 49 79 76 120 111
127 111 4 0 24 16 45 35 22 19 42 35 46 35 5 0 29 15 55 33 84 59 129 77 190
77 118 0 289 -76 375 -166 38 -41 89 -84 99 -84 3 0 13 8 23 18 15 17 15 22 1
48 -8 16 -15 34 -15 40 0 17 -71 95 -104 115 -20 12 -25 19 -14 19 18 0 130
-38 191 -64 32 -14 37 -14 37 -1 0 8 -3 15 -7 15 -5 0 -17 14 -28 31 -12 18
-48 45 -90 67 l-70 37 45 5 45 6 -30 13 c-74 33 -154 51 -225 51 -68 1 -73 2
-56 15 11 8 32 15 48 15 15 0 28 5 28 10 0 6 -1 10 -2 11 -55 11 -146 8 -217
-6 l-86 -18 -80 35 c-44 20 -104 40 -133 47 -61 13 -132 15 -132 3z"/>
<path d="M3127 3119 c7 -7 15 -10 18 -7 3 3 -2 9 -12 12 -14 6 -15 5 -6 -5z"/>
<path d="M1455 3020 c-3 -5 -1 -10 4 -10 6 0 11 5 11 10 0 6 -2 10 -4 10 -3 0
-8 -4 -11 -10z"/>
<path d="M1625 2865 c-93 -21 -212 -91 -192 -112 10 -9 78 -5 91 6 16 14 87
31 171 42 81 11 115 25 115 50 0 31 -83 37 -185 14z"/>
<path d="M2776 2862 c-4 -7 -2 -21 4 -32 9 -17 21 -20 88 -20 43 0 104 -7 135
-15 94 -24 160 -17 123 14 -8 7 -38 21 -68 32 -63 24 -271 39 -282 21z"/>
<path d="M3480 2796 c0 -2 8 -10 18 -17 15 -13 16 -12 3 4 -13 16 -21 21 -21
13z"/>
<path d="M3207 2730 c-26 -33 -52 -60 -59 -60 -6 0 -4 7 5 18 26 29 20 40 -7
12 -13 -14 -21 -30 -19 -36 2 -7 -1 -15 -8 -20 -8 -5 -10 -3 -4 6 6 9 4 11 -4
6 -7 -5 -21 0 -32 10 -10 9 -19 13 -19 8 0 -13 37 -44 53 -44 7 0 22 7 34 15
26 18 117 134 111 141 -3 2 -26 -23 -51 -56z"/>
<path d="M1730 2746 c0 -2 9 -6 20 -9 11 -3 18 -1 14 4 -5 9 -34 13 -34 5z"/>
<path d="M1350 2724 c0 -19 40 -73 73 -98 39 -30 47 -32 47 -11 0 8 -9 15 -21
15 -13 0 -18 4 -13 12 4 6 3 8 -2 5 -14 -8 -28 3 -58 47 -14 21 -26 35 -26 30z"/>
<path d="M1555 2720 c-3 -6 1 -7 9 -4 18 7 21 14 7 14 -6 0 -13 -4 -16 -10z"/>
<path d="M1780 2726 c0 -2 7 -7 16 -10 8 -3 12 -2 9 4 -6 10 -25 14 -25 6z"/>
<path d="M2990 2726 c0 -2 7 -7 16 -10 8 -3 12 -2 9 4 -6 10 -25 14 -25 6z"/>
<path d="M3306 2701 c-21 -23 -129 -78 -168 -86 -16 -3 -28 -9 -28 -14 0 -13
51 -1 105 25 56 27 123 79 114 88 -3 3 -14 -3 -23 -13z"/>
<path d="M3036 2697 c3 -10 9 -15 12 -12 3 3 0 11 -7 18 -10 9 -11 8 -5 -6z"/>
<path d="M1260 2691 c0 -6 24 -28 53 -49 58 -43 141 -80 135 -61 -2 7 -27 21
-56 32 -28 11 -69 35 -92 54 -22 19 -40 30 -40 24z"/>
<path d="M1517 2693 c-4 -3 -7 -11 -7 -17 0 -6 5 -5 12 2 6 6 9 14 7 17 -3 3
-9 2 -12 -2z"/>
<path d="M1830 2691 c0 -5 5 -13 10 -16 6 -3 10 -2 10 4 0 5 -4 13 -10 16 -5
3 -10 2 -10 -4z"/>
<path d="M2724 2679 c-19 -22 -19 -22 4 -8 12 8 22 17 22 21 0 12 -6 9 -26
-13z"/>
<path d="M1644 2650 c-54 -24 -120 -99 -134 -151 -7 -24 -12 -77 -13 -118 0
-75 11 -111 55 -173 15 -20 4 -35 -14 -21 -7 6 -42 11 -78 11 -47 0 -58 -2
-40 -8 14 -4 40 -8 58 -9 37 -1 70 -17 157 -73 l60 -39 -45 40 c-25 23 -53 44
-62 47 -19 6 -25 24 -8 24 6 0 10 -4 10 -9 0 -13 48 -29 108 -35 61 -6 103 14
157 75 95 107 100 241 12 371 -49 73 -147 103 -223 68z m119 -264 c3 -8 0 -22
-8 -32 -11 -15 -15 -16 -29 -5 -12 10 -13 18 -5 32 11 22 35 25 42 5z"/>
<path d="M2842 2640 c-87 -54 -132 -138 -132 -253 0 -85 19 -137 69 -190 35
-39 66 -53 131 -63 30 -4 47 -9 38 -12 -10 -2 -18 -8 -18 -13 0 -15 16 -10 34
10 9 10 31 21 47 25 17 3 28 10 24 16 -6 10 47 15 130 12 39 -1 40 -1 10 9
-16 5 -55 7 -85 3 l-55 -6 28 22 c43 34 87 136 87 201 -1 32 -7 62 -15 73 -8
11 -15 26 -15 33 0 25 -51 93 -92 123 -34 25 -51 30 -97 30 -39 0 -66 -6 -89
-20z m110 -268 c-5 -27 -28 -40 -44 -24 -17 17 0 50 25 48 19 -1 22 -6 19 -24z"/>
<path d="M1095 2559 c-4 -6 -5 -12 -2 -15 2 -3 7 2 10 11 7 17 1 20 -8 4z"/>
<path d="M2640 2524 c0 -8 5 -12 10 -9 6 3 10 10 10 16 0 5 -4 9 -10 9 -5 0
-10 -7 -10 -16z"/>
<path d="M1072 2505 c-17 -37 -14 -45 4 -12 9 16 14 31 11 33 -2 2 -9 -7 -15
-21z"/>
<path d="M1423 2445 c0 -27 2 -38 4 -22 2 15 2 37 0 50 -2 12 -4 0 -4 -28z"/>
<path d="M3690 2395 c0 -5 5 -17 10 -25 5 -8 10 -10 10 -5 0 6 -5 17 -10 25
-5 8 -10 11 -10 5z"/>
<path d="M3721 2300 c0 -8 4 -24 9 -35 l9 -20 0 20 c0 11 -4 27 -9 35 -9 13
-10 13 -9 0z"/>
<path d="M535 2267 c-14 -11 -17 -22 -12 -57 3 -24 10 -46 15 -49 5 -3 12 -23
16 -44 l7 -39 -33 7 c-18 3 -59 13 -91 21 -32 8 -73 14 -90 13 -18 0 18 -11
78 -24 61 -12 117 -26 126 -29 26 -11 28 14 7 74 -26 71 -28 110 -6 124 20 12
73 -14 97 -48 8 -12 36 -41 63 -65 37 -34 52 -58 68 -107 17 -51 28 -68 52
-80 48 -25 108 -44 108 -34 0 4 -13 11 -30 15 -16 4 -32 11 -35 16 -4 5 -14 9
-24 9 -27 0 -48 30 -56 78 -6 35 -20 56 -88 126 -105 107 -132 122 -172 93z"/>
<path d="M1460 2263 c0 -6 8 -17 18 -24 16 -13 16 -13 2 6 -8 11 -16 22 -17
24 -2 2 -3 0 -3 -6z"/>
<path d="M4114 2254 c-18 -14 -18 -15 5 -4 13 7 37 9 53 6 18 -3 27 -2 23 4
-9 15 -59 12 -81 -6z"/>
<path d="M991 2244 c0 -11 3 -14 6 -6 3 7 2 16 -1 19 -3 4 -6 -2 -5 -13z"/>
<path d="M4018 2170 c-54 -56 -70 -79 -83 -125 -16 -53 -20 -57 -68 -80 -29
-13 -63 -25 -76 -27 -14 -1 -26 -8 -28 -14 -6 -17 128 33 153 57 12 11 24 34
28 50 7 38 52 103 105 152 23 21 41 43 41 48 0 13 1 14 -72 -61z"/>
<path d="M4201 2228 c0 -10 -9 -32 -20 -51 -10 -18 -22 -52 -26 -75 l-7 -43
44 7 c61 10 96 26 43 20 -22 -2 -48 -7 -58 -11 -16 -7 -17 -4 -11 21 4 16 15
46 26 67 11 21 17 48 15 60 -3 15 -5 16 -6 5z"/>
<path d="M982 2190 c0 -14 2 -19 5 -12 2 6 2 18 0 25 -3 6 -5 1 -5 -13z"/>
<path d="M972 2130 c0 -19 2 -27 5 -17 2 9 2 25 0 35 -3 9 -5 1 -5 -18z"/>
<path d="M3752 2140 c0 -14 2 -19 5 -12 2 6 2 18 0 25 -3 6 -5 1 -5 -13z"/>
<path d="M248 2123 c12 -2 32 -2 45 0 12 2 2 4 -23 4 -25 0 -35 -2 -22 -4z"/>
<path d="M195 2099 c-8 -23 16 -55 48 -65 18 -6 19 -7 4 -16 -10 -5 -22 -6
-29 -2 -6 4 -8 3 -5 -3 8 -13 127 -16 127 -2 0 5 -4 8 -8 5 -11 -7 -104 37
-121 57 -11 14 -11 20 -1 32 8 9 8 15 2 15 -6 0 -14 -9 -17 -21z"/>
<path d="M4325 2104 c-46 -13 -47 -13 -10 -9 115 15 155 17 179 11 35 -9 34
-41 -1 -60 -17 -9 -22 -15 -12 -16 24 0 51 35 47 62 -3 22 -8 23 -78 25 -41 0
-97 -5 -125 -13z"/>
<path d="M3763 2075 c0 -22 2 -30 4 -17 2 12 2 30 0 40 -3 9 -5 -1 -4 -23z"/>
<path d="M964 2076 c-3 -8 -4 -31 -2 -52 3 -36 4 -35 8 14 5 53 4 63 -6 38z"/>
<path d="M2898 2079 c-10 -5 -18 -15 -18 -22 0 -8 3 -9 8 -1 4 6 16 16 27 22
11 6 16 11 10 11 -5 0 -18 -4 -27 -10z"/>
<path d="M372 2040 c0 -14 2 -19 5 -12 2 6 2 18 0 25 -3 6 -5 1 -5 -13z"/>
<path d="M4341 2034 c0 -11 3 -14 6 -6 3 7 2 16 -1 19 -3 4 -6 -2 -5 -13z"/>
<path d="M158 2008 c-23 -8 -28 -15 -27 -41 l1 -32 7 30 c4 21 13 31 29 33 12
2 22 8 22 13 0 5 -1 9 -2 8 -2 0 -15 -5 -30 -11z"/>
<path d="M4401 2009 c-13 -5 -21 -12 -18 -15 9 -10 88 7 81 17 -7 11 -32 11
-63 -2z"/>
<path d="M4524 1999 c22 -5 45 -14 53 -20 7 -7 13 -7 13 -2 0 14 -47 33 -78
32 -22 -1 -20 -3 12 -10z"/>
<path d="M629 1959 c24 -21 54 -42 67 -45 13 -3 25 -13 27 -22 4 -16 5 -16 6
0 0 9 9 18 19 21 9 2 3 4 -14 4 -31 0 -124 56 -124 75 0 4 -6 8 -12 8 -7 -1 7
-19 31 -41z"/>
<path d="M4105 1980 c-10 -11 -34 -30 -52 -41 -40 -25 -37 -37 4 -16 32 17 79
64 71 72 -2 3 -13 -4 -23 -15z"/>
<path d="M956 1943 c-4 -9 -2 -21 4 -27 7 -7 10 -2 10 17 0 31 -5 34 -14 10z"/>
<path d="M4569 1935 c-8 -8 -39 -21 -69 -29 l-55 -15 43 0 c24 -1 56 -8 72
-16 17 -9 30 -11 30 -5 0 5 -3 10 -7 10 -5 0 -15 4 -22 9 -12 8 -11 13 10 29
13 11 21 23 18 26 -3 3 -12 -1 -20 -9z"/>
<path d="M150 1931 c0 -5 8 -11 18 -14 14 -3 12 -6 -10 -17 -40 -19 -34 -32 7
-14 19 7 54 15 77 15 l43 2 -45 6 c-25 4 -55 12 -67 19 -13 7 -23 8 -23 3z"/>
<path d="M3960 1912 c0 -10 41 -24 49 -17 6 7 0 11 -26 19 -13 4 -23 3 -23 -2z"/>
<path d="M1297 1885 c-9 -9 -17 -23 -17 -31 0 -8 -4 -14 -10 -14 -14 0 -13
-53 2 -85 7 -17 24 -29 50 -35 22 -6 38 -17 38 -25 0 -8 4 -15 9 -15 18 0 71
35 71 48 0 6 7 12 15 12 11 0 15 12 15 50 0 38 -4 50 -15 50 -9 0 -15 9 -15
25 0 21 -5 25 -27 25 -16 0 -44 3 -64 6 -26 4 -40 2 -52 -11z"/>
<path d="M961 1855 c0 -22 4 -47 9 -55 8 -12 9 -10 9 10 -1 14 -5 39 -9 55 -7
29 -8 29 -9 -10z"/>
<path d="M2200 1861 c-78 -32 -82 -104 -7 -143 36 -19 58 -23 147 -23 108 0
141 10 178 54 70 85 -172 171 -318 112z"/>
<path d="M4002 1850 c-1 -19 -5 -46 -7 -60 l-6 -25 11 25 c6 13 9 40 7 60 l-4
35 -1 -35z"/>
<path d="M717 1863 c-10 -9 -8 -55 2 -71 5 -8 8 5 7 32 -1 25 -1 46 -2 46 0 0
-4 -3 -7 -7z"/>
<path d="M120 1851 c0 -30 59 -63 116 -64 47 0 56 -10 24 -27 -23 -12 -26 -42
-7 -58 6 -6 26 -13 42 -17 30 -6 29 -6 -5 12 -52 27 -45 45 29 68 l63 20 -108
12 c-98 10 -111 14 -131 38 -13 14 -23 22 -23 16z"/>
<path d="M3310 1851 c0 -5 -11 -12 -25 -15 -41 -10 -57 -45 -46 -100 5 -26 11
-49 14 -52 11 -11 122 -22 132 -13 5 5 17 9 27 9 15 0 18 9 18 55 0 63 -16
105 -40 105 -9 0 -20 3 -24 7 -11 11 -56 15 -56 4z"/>
<path d="M4578 1825 c-18 -23 -40 -29 -168 -41 -90 -8 -90 -10 3 -29 12 -2 31
-11 41 -18 19 -14 19 -15 2 -32 -13 -13 -47 -22 -119 -31 -73 -8 -88 -12 -53
-13 81 -2 175 18 187 40 10 20 -3 59 -21 59 -6 0 -10 5 -10 10 0 6 18 10 40
10 49 0 108 23 116 45 10 25 1 25 -18 0z"/>
<path d="M3758 1815 c-3 -14 -1 -25 3 -25 5 0 9 11 9 25 0 14 -2 25 -4 25 -2
0 -6 -11 -8 -25z"/>
<path d="M3746 1748 c-3 -7 -7 -29 -10 -48 -3 -19 -8 -48 -11 -65 -5 -27 -4
-27 7 5 12 33 16 35 68 41 l55 6 -54 1 -53 2 6 35 c7 33 0 50 -8 23z"/>
<path d="M1890 1701 c0 -35 -19 -91 -31 -91 -5 0 -9 -6 -9 -14 0 -13 -45 -57
-86 -83 -15 -10 -13 -10 11 -1 17 6 46 27 65 45 l36 33 48 -40 c63 -53 78 -73
106 -148 29 -80 61 -112 134 -134 62 -20 171 -24 181 -8 3 6 17 7 31 4 14 -4
24 -2 24 5 0 6 8 11 18 11 9 0 31 7 47 16 17 9 43 23 58 31 15 8 54 38 85 67
31 29 82 71 112 94 30 23 60 46 66 51 6 5 25 12 42 16 27 5 38 1 69 -24 20
-17 39 -29 41 -26 3 2 -10 16 -27 30 -17 15 -31 34 -31 42 0 9 -7 21 -16 27
-8 6 -19 34 -24 61 l-9 50 3 -50 c2 -27 5 -56 7 -63 13 -43 -284 -76 -596 -67
-246 8 -269 11 -315 41 l-40 27 6 63 c4 35 4 64 0 64 -3 0 -6 -13 -6 -29z"/>
<path d="M987 1704 c5 -14 -5 -15 -87 -11 -67 4 -102 1 -127 -10 -19 -8 -60
-16 -90 -18 -72 -5 -81 -15 -14 -15 28 0 78 9 111 20 57 19 70 20 188 5 28 -3
32 -1 32 21 0 13 -4 24 -10 24 -5 0 -7 -7 -3 -16z"/>
<path d="M3864 1691 c3 -5 18 -11 33 -14 16 -3 46 -10 68 -16 22 -6 67 -10
100 -9 l60 1 -75 8 c-41 4 -95 15 -119 23 -49 18 -75 20 -67 7z"/>
<path d="M365 1676 c25 -9 79 -14 145 -14 l105 1 -105 7 c-58 4 -123 10 -145
13 l-40 6 40 -13z"/>
<path d="M4138 1653 c7 -3 16 -2 19 1 4 3 -2 6 -13 5 -11 0 -14 -3 -6 -6z"/>
<path d="M1011 1604 c0 -11 3 -14 6 -6 3 7 2 16 -1 19 -3 4 -6 -2 -5 -13z"/>
<path d="M1030 1535 c0 -5 5 -17 10 -25 5 -8 10 -10 10 -5 0 6 -5 17 -10 25
-5 8 -10 11 -10 5z"/>
<path d="M3686 1525 c-9 -26 -7 -32 5 -12 6 10 9 21 6 23 -2 3 -7 -2 -11 -11z"/>
<path d="M1050 1476 c0 -8 4 -17 9 -20 5 -4 7 3 4 14 -6 23 -13 26 -13 6z"/>
<path d="M1070 1436 c0 -11 40 -86 45 -86 3 0 -4 19 -16 43 -23 45 -29 54 -29
43z"/>
<path d="M3610 1339 c-7 -11 -10 -23 -7 -25 2 -2 9 7 15 21 14 30 7 33 -8 4z"/>
<path d="M3530 1204 c-18 -25 -30 -47 -28 -49 1 -2 18 19 36 46 41 62 34 65
-8 3z"/>
<path d="M2080 1065 c0 -2 20 -16 44 -30 58 -34 140 -36 209 -6 58 25 63 37 5
14 -63 -25 -153 -23 -206 5 -44 23 -52 25 -52 17z"/>
<path d="M3400 1040 c-9 -6 -10 -10 -3 -10 6 0 15 5 18 10 8 12 4 12 -15 0z"/>
<path d="M3356 993 c-6 -14 -5 -15 5 -6 7 7 10 15 7 18 -3 3 -9 -2 -12 -12z"/>
<path d="M3295 938 c-22 -18 -44 -36 -50 -40 -5 -4 -23 -19 -40 -34 -25 -22
-23 -21 15 5 48 32 129 100 120 101 -3 0 -23 -15 -45 -32z"/>
<path d="M1459 911 c34 -31 47 -39 36 -21 -3 5 -20 19 -38 31 l-32 21 34 -31z"/>
<path d="M1516 867 c3 -10 9 -15 12 -12 3 3 0 11 -7 18 -10 9 -11 8 -5 -6z"/>
<path d="M3140 820 l-25 -21 28 12 c15 7 27 16 27 21 0 11 -1 10 -30 -12z"/>
<path d="M1620 796 c0 -3 14 -12 30 -21 17 -9 30 -13 30 -11 0 3 -13 12 -30
21 -16 9 -30 13 -30 11z"/>
<path d="M1710 740 c8 -5 20 -10 25 -10 6 0 3 5 -5 10 -8 5 -19 10 -25 10 -5
0 -3 -5 5 -10z"/>
<path d="M3005 740 c-3 -5 -1 -10 4 -10 6 0 11 5 11 10 0 6 -2 10 -4 10 -3 0
-8 -4 -11 -10z"/>
<path d="M1775 710 c3 -5 16 -10 28 -9 21 0 21 1 2 9 -28 12 -37 12 -30 0z"/>
<path d="M2945 710 c-3 -5 -1 -10 4 -10 6 0 11 5 11 10 0 6 -2 10 -4 10 -3 0
-8 -4 -11 -10z"/>
<path d="M1836 685 c4 -8 15 -15 27 -15 23 0 22 2 -10 19 -19 10 -22 9 -17 -4z"/>
<path d="M2880 685 c-14 -8 -20 -14 -15 -14 6 0 21 6 35 14 14 8 21 14 15 14
-5 0 -21 -6 -35 -14z"/>
<path d="M1919 655 c18 -8 38 -15 45 -15 6 1 -4 7 -23 15 -18 8 -38 15 -45 15
-6 -1 4 -7 23 -15z"/>
<path d="M2828 663 c7 -3 16 -2 19 1 4 3 -2 6 -13 5 -11 0 -14 -3 -6 -6z"/>
<path d="M2780 650 c-23 -7 -23 -8 -3 -9 12 -1 25 4 28 9 3 6 5 10 3 9 -2 -1
-14 -5 -28 -9z"/>
<path d="M1990 630 c8 -5 24 -9 35 -9 l20 0 -20 9 c-11 5 -27 9 -35 9 -13 1
-13 0 0 -9z"/>
<path d="M2705 630 c-13 -5 -14 -9 -5 -9 8 0 24 4 35 9 13 5 14 9 5 9 -8 0
-24 -4 -35 -9z"/>
<path d="M2058 613 c6 -2 18 -2 25 0 6 3 1 5 -13 5 -14 0 -19 -2 -12 -5z"/>
<path d="M2648 613 c6 -2 18 -2 25 0 6 3 1 5 -13 5 -14 0 -19 -2 -12 -5z"/>
<path d="M2128 603 c6 -2 18 -2 25 0 6 3 1 5 -13 5 -14 0 -19 -2 -12 -5z"/>
<path d="M2588 603 c6 -2 18 -2 25 0 6 3 1 5 -13 5 -14 0 -19 -2 -12 -5z"/>
<path d="M2210 588 c62 -9 308 -10 313 0 3 4 -77 7 -176 7 -102 0 -162 -3
-137 -7z"/>
</g>
</svg>
