<?xml version="1.0" standalone="no"?>
<!DOCTYPE svg PUBLIC "-//W3C//DTD SVG 20010904//EN"
 "http://www.w3.org/TR/2001/REC-SVG-20010904/DTD/svg10.dtd">
<svg version="1.0" xmlns="http://www.w3.org/2000/svg"
 width="686.000000pt" height="672.000000pt" viewBox="0 0 686.000000 672.000000"
 preserveAspectRatio="xMidYMid meet">

<g transform="translate(0.000000,672.000000) scale(0.100000,-0.100000)"
fill="#000000" stroke="none">
<path d="M4932 5590 c96 -15 183 -73 250 -164 37 -52 36 -37 -1 18 -64 92
-150 145 -249 151 l-57 4 57 -9z"/>
<path d="M3080 5583 c-37 -14 -91 -83 -90 -115 1 -7 9 3 19 22 24 45 61 79 97
90 19 5 22 8 9 8 -11 0 -27 -2 -35 -5z"/>
<path d="M3110 5281 c-32 -9 -66 -60 -86 -129 -21 -69 -14 -193 13 -277 18
-53 28 -67 94 -121 46 -38 91 -65 119 -73 42 -11 52 -10 125 15 56 19 108 28
175 31 140 7 140 8 139 146 -1 61 -5 126 -8 142 -4 17 -5 -22 -3 -86 7 -180 3
-186 -129 -190 -41 -1 -94 -8 -119 -15 -25 -8 -46 -14 -47 -14 -1 0 10 21 25
48 36 63 38 175 5 238 -47 89 -127 143 -225 151 -32 3 -58 10 -58 14 0 5 -7 9
-15 9 -25 0 -17 24 22 69 l37 44 65 -6 c40 -3 58 -2 46 3 -24 10 -140 11 -175
1z m14 -355 c71 -41 82 -75 32 -98 -20 -9 -30 -8 -51 6 -47 31 -59 106 -27
172 l17 37 5 -53 c4 -37 11 -57 24 -64z"/>
<path d="M4758 5265 c-108 -27 -188 -82 -233 -159 -40 -69 -55 -151 -55 -299
0 -127 2 -138 23 -161 15 -18 39 -29 74 -36 29 -5 74 -20 101 -34 l48 -24 81
36 c45 20 78 39 72 43 -6 4 -6 16 1 35 7 16 12 54 12 85 0 125 -90 238 -210
264 -26 5 -31 10 -22 20 10 12 2 15 -39 21 l-50 6 14 27 c40 75 89 96 164 70
17 -6 44 -8 59 -4 l27 7 -28 15 c-16 8 -56 18 -90 22 l-62 8 46 21 c184 86
430 7 518 -167 44 -86 62 -217 45 -322 l-6 -37 -82 -7 c-127 -10 -166 -23 -56
-18 52 2 109 6 125 9 l31 4 2 118 c3 95 -1 129 -17 182 -25 79 -80 162 -138
206 -91 70 -239 98 -355 69z m-226 -395 c-6 -45 14 -85 54 -103 43 -21 48 -61
9 -79 -35 -16 -72 3 -91 47 -19 45 -18 71 6 123 23 50 28 53 22 12z"/>
<path d="M2884 4958 c10 -7 46 -35 80 -62 59 -47 60 -48 23 -9 -21 22 -57 50
-80 62 -23 12 -33 16 -23 9z"/>
<path d="M2925 4810 c10 -11 20 -20 23 -20 3 0 -3 9 -13 20 -10 11 -20 20 -23
20 -3 0 3 -9 13 -20z"/>
<path d="M3815 4700 c-70 -10 -147 -46 -181 -82 l-29 -31 35 25 c63 46 124 62
245 62 150 -1 229 -29 390 -144 17 -12 6 1 -23 28 -116 108 -289 165 -437 142z"/>
<path d="M5305 4683 c17 -3 99 -20 184 -39 163 -37 215 -40 84 -6 -101 27
-238 52 -272 51 -24 -2 -24 -2 4 -6z"/>
<path d="M4915 4645 c-39 -18 -31 -18 25 -1 25 8 36 15 25 15 -11 0 -33 -6
-50 -14z"/>
<path d="M535 4585 c-42 -21 -89 -77 -104 -122 -8 -22 -15 -109 -18 -210 l-5
-173 45 -19 c65 -28 272 -184 301 -228 42 -61 32 -153 -23 -210 -11 -12 -21
-25 -21 -27 0 -3 18 -15 40 -26 95 -49 148 -129 137 -209 -7 -55 -38 -95 -95
-123 -66 -32 -240 -33 -319 -1 -29 11 -54 18 -57 15 -4 -3 -6 -30 -6 -60 0
-48 2 -53 18 -47 9 4 53 10 98 12 68 5 87 2 121 -16 77 -39 123 -118 123 -212
0 -46 -29 -121 -51 -135 -8 -5 -63 -9 -124 -9 -81 0 -120 -5 -147 -17 l-38
-17 0 -348 c0 -191 4 -385 9 -429 18 -149 63 -230 304 -539 366 -468 665 -831
813 -985 l91 -95 12 -73 c18 -117 65 -185 156 -230 94 -46 317 -62 405 -28 56
22 97 28 1540 226 646 88 1192 165 1214 171 51 14 128 91 144 145 6 23 12 80
12 127 l0 86 -87 0 c-101 0 -236 31 -354 80 -184 77 -313 257 -239 336 l20 21
-113 44 c-145 56 -187 93 -187 168 0 28 4 61 9 74 19 51 105 114 195 143 16 5
11 12 -33 41 -80 54 -99 118 -62 201 38 82 120 103 409 103 238 0 298 10 372
65 38 28 49 43 54 72 18 109 27 424 21 723 -7 317 -8 326 -31 373 -14 27 -42
60 -66 77 -83 61 -47 63 -794 -49 -551 -83 -1343 -204 -1939 -297 -119 -18
-276 -18 -350 1 -149 38 -259 124 -289 226 -9 29 -20 55 -25 58 -4 3 -57 76
-116 161 -60 85 -224 317 -365 515 -141 198 -300 424 -354 501 -53 78 -106
150 -116 159 -27 24 -98 30 -135 10z m412 -515 c230 -335 267 -393 239 -371
-14 11 -247 345 -450 645 -28 41 -35 70 -12 46 8 -8 108 -152 223 -320z m3421
-845 c-6 -6 -1167 -185 -1193 -184 l-20 1 20 6 c36 10 1129 180 1164 181 19 0
32 -1 29 -4z m-1221 -191 c-3 -3 -12 -4 -19 -1 -8 3 -5 6 6 6 11 1 17 -2 13
-5z"/>
<path d="M5404 4592 c4 -7 31 -12 59 -12 29 0 81 -7 117 -14 80 -17 90 -13 20
8 -70 21 -205 33 -196 18z"/>
<path d="M5338 4583 c12 -2 30 -2 40 0 9 3 -1 5 -23 4 -22 0 -30 -2 -17 -4z"/>
<path d="M5268 4573 c7 -3 16 -2 19 1 4 3 -2 6 -13 5 -11 0 -14 -3 -6 -6z"/>
<path d="M4223 4324 c-10 -7 -15 -15 -11 -19 9 -9 89 5 83 15 -9 14 -55 17
-72 4z"/>
<path d="M5760 4227 c0 -2 20 -18 44 -35 52 -38 103 -114 116 -173 l9 -44 -4
48 c-6 58 -24 96 -69 139 -32 30 -96 74 -96 65z"/>
<path d="M3034 4064 c-10 -39 2 -114 20 -133 16 -15 16 -13 0 24 -10 26 -15
56 -12 87 6 53 2 62 -8 22z"/>
<path d="M5155 3893 c-83 -43 -225 -92 -385 -134 -135 -36 -170 -37 -551 -21
-310 14 -546 41 -664 76 -11 4 -6 0 12 -9 78 -36 371 -69 758 -85 258 -11 275
-11 371 9 136 28 351 99 452 150 45 23 82 43 82 46 0 7 3 8 -75 -32z"/>
<path d="M3420 3875 c0 -7 101 -57 106 -53 2 2 -21 16 -51 31 -30 15 -55 25
-55 22z"/>
<path d="M4431 3636 c-28 -45 -45 -58 -89 -67 l-37 -7 42 -1 c36 -1 45 4 71
35 26 31 47 74 37 74 -2 0 -13 -15 -24 -34z"/>
<path d="M3950 3588 c-36 -5 -85 -6 -110 -3 -30 3 -40 2 -30 -4 30 -20 109
-20 230 -2 l125 19 -75 0 c-41 0 -104 -5 -140 -10z"/>
</g>
</svg>
